<svg xmlns="http://www.w3.org/2000/svg" xmlns:xlink="http://www.w3.org/1999/xlink" viewBox="0,0,256,256" width="50px" height="50px"><g fill-opacity="0.6902" fill="#6a243f" fill-rule="nonzero" stroke="none" stroke-width="1" stroke-linecap="butt" stroke-linejoin="miter" stroke-miterlimit="10" stroke-dasharray="" stroke-dashoffset="0" font-family="none" font-weight="none" font-size="none" text-anchor="none" style="mix-blend-mode: normal"><g transform="scale(5.12,5.12)"><path d="M24,2c-6.61719,0 -12,6.28125 -12,14c0,0.33984 0.01172,0.68359 0.03906,1.04297c-5.29297,0.48047 -9.03906,4.94141 -9.03906,10.95703c0,2.10547 0.58594,4.11328 1.70703,5.875c-1.71094,1.41406 -2.70703,3.45313 -2.70703,5.625c0,4.13672 3.58984,7.5 8,7.5h30c4.41016,0 8,-3.36328 8,-7.5c0,-2.03906 -0.89844,-3.98828 -2.44922,-5.39062c1.58594,-2.0625 2.44922,-4.54687 2.44922,-7.10937c0,-6.95312 -4.83594,-12 -11.5,-12c-0.17187,0 -0.34766,0.00391 -0.53125,0.01563c-0.43359,-7.26562 -5.63672,-13.01562 -11.96875,-13.01562zM24,12.48828l1.54688,3.13281l3.45313,0.50391l-2.5,2.4375l0.58984,3.4375l-3.08984,-1.625l-3.08984,1.625l0.58984,-3.4375l-2.5,-2.4375l3.45313,-0.50391zM29,26h3c0.55469,0 1,0.44531 1,1c0,0.55469 -0.44531,1 -1,1h-0.46484c0.35938,0.19531 0.61719,0.5625 0.61719,1c0,0.63672 -0.51562,1.15234 -1.15234,1.15234c-0.63672,0 -1.15234,-0.51562 -1.15234,-1.15234c0,-0.4375 0.25781,-0.80469 0.61719,-1h-1.46484c-0.55469,0 -1,-0.44531 -1,-1c0,-0.55469 0.44531,-1 1,-1zM16.92188,27c0.12891,-0.00781 0.26172,0.00781 0.39453,0.05078l3,1c0.52344,0.17578 0.80469,0.74219 0.63281,1.26563c-0.14062,0.41797 -0.53125,0.68359 -0.94922,0.68359c-0.10547,0 -0.21094,-0.01953 -0.31641,-0.05078l-0.58594,-0.19531c0.01953,0.08203 0.05469,0.16016 0.05469,0.24609c0,0.63672 -0.51562,1.15234 -1.15234,1.15234c-0.63672,0 -1.15234,-0.51562 -1.15234,-1.15234c0,-0.34766 0.16797,-0.64844 0.41016,-0.85937l-0.57422,-0.19141c-0.52344,-0.17578 -0.80859,-0.74219 -0.63281,-1.26562c0.13281,-0.39062 0.48047,-0.65234 0.87109,-0.68359zM24.5,30c2.56641,0 4.5,1.28906 4.5,3c0,1.71094 -1.93359,3 -4.5,3c-2.56641,0 -4.5,-1.28906 -4.5,-3c0,-1.71094 1.93359,-3 4.5,-3zM24.5,32c-1.625,0 -2.5,0.71094 -2.5,1c0,0.28906 0.875,1 2.5,1c1.625,0 2.5,-0.71094 2.5,-1c0,-0.28906 -0.875,-1 -2.5,-1z"></path></g></g></svg>